<?xml version="1.0" encoding="utf-8" standalone="no"?>
<!DOCTYPE svg PUBLIC "-//W3C//DTD SVG 1.1//EN"
  "http://www.w3.org/Graphics/SVG/1.1/DTD/svg11.dtd">
<svg xmlns:xlink="http://www.w3.org/1999/xlink" width="287.44125pt" height="132.8pt" viewBox="0 0 287.44125 132.8" xmlns="http://www.w3.org/2000/svg" version="1.1">
 <metadata>
  <rdf:RDF xmlns:dc="http://purl.org/dc/elements/1.1/" xmlns:cc="http://creativecommons.org/ns#" xmlns:rdf="http://www.w3.org/1999/02/22-rdf-syntax-ns#">
   <cc:Work>
    <dc:type rdf:resource="http://purl.org/dc/dcmitype/StillImage"/>
    <dc:date>2026-08-27T23:26:15.294709</dc:date>
    <dc:format>image/svg+xml</dc:format>
    <dc:creator>
     <cc:Agent>
      <dc:title>Matplotlib v3.11.0, https://matplotlib.org/</dc:title>
     </cc:Agent>
    </dc:creator>
   </cc:Work>
  </rdf:RDF>
 </metadata>
 <defs>
  <style type="text/css">*{stroke-linejoin: round; stroke-linecap: butt}</style>
 </defs>
 <g id="figure_1">
  <g id="patch_1">
   <path d="M 0 132.8 
L 287.44125 132.8 
L 287.44125 0 
L 0 0 
L 0 132.8 
z
" style="fill: none"/>
  </g>
  <g id="axes_1">
   <g id="patch_2">
    <path d="M 7.2 125.6 
L 280.24125 125.6 
L 280.24125 7.2 
L 7.2 7.2 
z
" style="fill: #ffffff"/>
   </g>
   <g id="patch_3">
    <path d="M 7.2 125.6 
L 89.523995 125.6 
L 89.523995 7.2 
L 7.2 7.2 
z
" clip-path="url(#p8539b4a25f)" style="fill: #9ba7b0; opacity: 0.13; stroke: #9ba7b0; stroke-linejoin: miter"/>
   </g>
   <g id="patch_4">
    <path d="M 89.523995 125.6 
L 280.24125 125.6 
L 280.24125 7.2 
L 89.523995 7.2 
z
" clip-path="url(#p8539b4a25f)" style="fill: #e8b84b; opacity: 0.13; stroke: #e8b84b; stroke-linejoin: miter"/>
   </g>
   <g id="matplotlib.axis_1"/>
   <g id="matplotlib.axis_2"/>
   <g id="line2d_1">
    <path d="M 7.2 53.842424 
L 18.176533 56.554647 
L 29.153065 59.498808 
L 40.129598 62.674906 
L 51.106131 66.082943 
L 62.082663 69.722917 
L 73.059196 73.594829 
L 84.035729 77.698679 
L 95.012261 82.034467 
L 105.988794 86.602192 
L 116.965327 91.401855 
L 127.941859 96.433456 
L 138.918392 101.696995 
L 149.894925 107.192472 
L 160.871457 112.919887 
L 171.84799 118.879239 
L 182.824523 125.070529 
L 193.801055 131.493758 
L 197.647868 133.8 
L 197.647868 133.8 
" clip-path="url(#p8539b4a25f)" style="fill: none; stroke: #1f262b; stroke-width: 1.4; stroke-linecap: square"/>
   </g>
   <g id="line2d_2">
    <path d="M 7.2 53.842424 
L 18.176533 56.554647 
L 29.153065 59.498808 
L 40.129598 62.674906 
L 51.106131 66.082943 
L 62.082663 69.722917 
L 73.059196 73.594829 
L 84.035729 77.698679 
L 88.151928 79.297419 
L 89.523995 82.514967 
L 100.500528 86.606133 
L 111.47706 90.929237 
L 122.453593 95.484278 
L 133.430126 100.271257 
L 144.406658 105.290174 
L 155.383191 110.541029 
L 166.359724 116.023822 
L 177.336256 121.738552 
L 188.312789 127.685221 
L 199.177763 133.8 
L 199.177763 133.8 
" clip-path="url(#p8539b4a25f)" style="fill: none; stroke-dasharray: 4.07,1.76; stroke-dashoffset: 0; stroke: #9ba7b0; stroke-width: 1.1"/>
   </g>
   <g id="line2d_3">
    <path d="M 7.2 53.842424 
L 18.176533 56.554647 
L 29.153065 59.498808 
L 40.129598 62.674906 
L 51.106131 66.082943 
L 62.082663 69.722917 
L 73.059196 73.594829 
L 84.035729 77.698679 
L 95.012261 82.034467 
L 105.988794 86.602192 
L 116.965327 91.401855 
L 127.941859 96.433456 
L 138.918392 101.696995 
L 149.894925 107.192472 
L 160.871457 112.919887 
L 170.475923 118.121636 
L 171.84799 119.002711 
L 184.196589 125.759799 
L 192.428989 130.499198 
L 197.904352 133.8 
L 197.904352 133.8 
" clip-path="url(#p8539b4a25f)" style="fill: none; stroke: #d64533; stroke-width: 1.6; stroke-linecap: square"/>
   </g>
   <g id="text_1">
    <!-- train -->
    <g style="fill: #707a82" transform="translate(37.888247 17.963636) scale(0.09 -0.09)">
     <defs>
      <path id="DejaVuSans-Oblique-57" d="M 2706 3500 
L 2619 3053 
L 1472 3053 
L 1100 1153 
Q 1081 1047 1072 975 
Q 1063 903 1063 863 
Q 1063 663 1183 572 
Q 1303 481 1569 481 
L 2150 481 
L 2053 0 
L 1503 0 
Q 991 0 739 200 
Q 488 400 488 806 
Q 488 878 497 964 
Q 506 1050 525 1153 
L 897 3053 
L 409 3053 
L 500 3500 
L 978 3500 
L 1172 4494 
L 1747 4494 
L 1556 3500 
L 2706 3500 
z
" transform="scale(0.015625)"/>
      <path id="DejaVuSans-Oblique-55" d="M 2853 2969 
Q 2766 3016 2653 3041 
Q 2541 3066 2413 3066 
Q 1953 3066 1609 2717 
Q 1266 2369 1153 1784 
L 800 0 
L 225 0 
L 909 3500 
L 1484 3500 
L 1375 2956 
Q 1603 3259 1920 3421 
Q 2238 3584 2597 3584 
Q 2691 3584 2781 3573 
Q 2872 3563 2963 3538 
L 2853 2969 
z
" transform="scale(0.015625)"/>
      <path id="DejaVuSans-Oblique-44" d="M 3438 1997 
L 3047 0 
L 2472 0 
L 2578 531 
Q 2325 219 2001 64 
Q 1678 -91 1281 -91 
Q 834 -91 548 182 
Q 263 456 263 884 
Q 263 1497 752 1853 
Q 1241 2209 2100 2209 
L 2900 2209 
L 2931 2363 
Q 2938 2388 2941 2417 
Q 2944 2447 2944 2509 
Q 2944 2788 2717 2942 
Q 2491 3097 2081 3097 
Q 1800 3097 1504 3025 
Q 1209 2953 897 2809 
L 997 3341 
Q 1322 3463 1633 3523 
Q 1944 3584 2234 3584 
Q 2853 3584 3176 3315 
Q 3500 3047 3500 2534 
Q 3500 2431 3484 2292 
Q 3469 2153 3438 1997 
z
M 2816 1759 
L 2241 1759 
Q 1534 1759 1195 1570 
Q 856 1381 856 984 
Q 856 709 1029 553 
Q 1203 397 1509 397 
Q 1978 397 2328 733 
Q 2678 1069 2791 1631 
L 2816 1759 
z
" transform="scale(0.015625)"/>
      <path id="DejaVuSans-Oblique-4c" d="M 1172 4863 
L 1747 4863 
L 1606 4134 
L 1031 4134 
L 1172 4863 
z
M 909 3500 
L 1484 3500 
L 800 0 
L 225 0 
L 909 3500 
z
" transform="scale(0.015625)"/>
      <path id="DejaVuSans-Oblique-51" d="M 3566 2113 
L 3156 0 
L 2578 0 
L 2988 2091 
Q 3016 2238 3031 2350 
Q 3047 2463 3047 2528 
Q 3047 2791 2881 2937 
Q 2716 3084 2419 3084 
Q 1956 3084 1622 2776 
Q 1288 2469 1184 1941 
L 800 0 
L 225 0 
L 903 3500 
L 1478 3500 
L 1363 2950 
Q 1603 3253 1940 3418 
Q 2278 3584 2650 3584 
Q 3113 3584 3367 3334 
Q 3622 3084 3622 2631 
Q 3622 2519 3608 2391 
Q 3594 2263 3566 2113 
z
" transform="scale(0.015625)"/>
     </defs>
     <use xlink:href="#DejaVuSans-Oblique-57"/>
     <use xlink:href="#DejaVuSans-Oblique-55" transform="translate(39.203125 0)"/>
     <use xlink:href="#DejaVuSans-Oblique-44" transform="translate(80.3125 0)"/>
     <use xlink:href="#DejaVuSans-Oblique-4c" transform="translate(141.59375 0)"/>
     <use xlink:href="#DejaVuSans-Oblique-51" transform="translate(169.375 0)"/>
    </g>
   </g>
   <g id="text_2">
    <!-- unseen tail -->
    <g style="fill: #b08a2e" transform="translate(159.992701 17.963636) scale(0.09 -0.09)">
     <defs>
      <path id="DejaVuSans-Oblique-58" d="M 428 1388 
L 838 3500 
L 1416 3500 
L 1006 1409 
Q 975 1256 961 1147 
Q 947 1038 947 966 
Q 947 700 1109 554 
Q 1272 409 1569 409 
Q 2031 409 2368 721 
Q 2706 1034 2809 1563 
L 3194 3500 
L 3769 3500 
L 3091 0 
L 2516 0 
L 2631 550 
Q 2388 244 2052 76 
Q 1716 -91 1338 -91 
Q 878 -91 622 161 
Q 366 413 366 863 
Q 366 956 381 1097 
Q 397 1238 428 1388 
z
" transform="scale(0.015625)"/>
      <path id="DejaVuSans-Oblique-56" d="M 3200 3397 
L 3091 2853 
Q 2863 2978 2609 3040 
Q 2356 3103 2088 3103 
Q 1634 3103 1373 2948 
Q 1113 2794 1113 2528 
Q 1113 2219 1719 2053 
Q 1766 2041 1788 2034 
L 1972 1978 
Q 2547 1819 2739 1644 
Q 2931 1469 2931 1166 
Q 2931 609 2489 259 
Q 2047 -91 1331 -91 
Q 1053 -91 747 -37 
Q 441 16 72 128 
L 184 722 
Q 500 559 806 475 
Q 1113 391 1394 391 
Q 1816 391 2080 572 
Q 2344 753 2344 1031 
Q 2344 1331 1650 1516 
L 1591 1531 
L 1394 1581 
Q 956 1697 753 1886 
Q 550 2075 550 2369 
Q 550 2928 970 3256 
Q 1391 3584 2113 3584 
Q 2397 3584 2667 3537 
Q 2938 3491 3200 3397 
z
" transform="scale(0.015625)"/>
      <path id="DejaVuSans-Oblique-48" d="M 3078 2063 
Q 3088 2113 3092 2166 
Q 3097 2219 3097 2272 
Q 3097 2653 2873 2875 
Q 2650 3097 2266 3097 
Q 1838 3097 1509 2826 
Q 1181 2556 1013 2059 
L 3078 2063 
z
M 3578 1613 
L 903 1613 
Q 884 1494 878 1425 
Q 872 1356 872 1306 
Q 872 872 1139 634 
Q 1406 397 1894 397 
Q 2269 397 2603 481 
Q 2938 566 3225 728 
L 3116 159 
Q 2806 34 2476 -28 
Q 2147 -91 1806 -91 
Q 1078 -91 686 257 
Q 294 606 294 1247 
Q 294 1794 489 2264 
Q 684 2734 1063 3103 
Q 1306 3334 1642 3459 
Q 1978 3584 2356 3584 
Q 2950 3584 3301 3228 
Q 3653 2872 3653 2272 
Q 3653 2128 3634 1964 
Q 3616 1800 3578 1613 
z
" transform="scale(0.015625)"/>
      <path id="DejaVuSans-Oblique-3" transform="scale(0.015625)"/>
      <path id="DejaVuSans-Oblique-4f" d="M 1172 4863 
L 1747 4863 
L 800 0 
L 225 0 
L 1172 4863 
z
" transform="scale(0.015625)"/>
     </defs>
     <use xlink:href="#DejaVuSans-Oblique-58"/>
     <use xlink:href="#DejaVuSans-Oblique-51" transform="translate(63.375 0)"/>
     <use xlink:href="#DejaVuSans-Oblique-56" transform="translate(126.75 0)"/>
     <use xlink:href="#DejaVuSans-Oblique-48" transform="translate(178.84375 0)"/>
     <use xlink:href="#DejaVuSans-Oblique-48" transform="translate(240.375 0)"/>
     <use xlink:href="#DejaVuSans-Oblique-51" transform="translate(301.90625 0)"/>
     <use xlink:href="#DejaVuSans-Oblique-3" transform="translate(365.28125 0)"/>
     <use xlink:href="#DejaVuSans-Oblique-57" transform="translate(397.0625 0)"/>
     <use xlink:href="#DejaVuSans-Oblique-44" transform="translate(436.265625 0)"/>
     <use xlink:href="#DejaVuSans-Oblique-4c" transform="translate(497.546875 0)"/>
     <use xlink:href="#DejaVuSans-Oblique-4f" transform="translate(525.328125 0)"/>
    </g>
   </g>
   <g id="legend_1">
    <g id="line2d_4">
     <path d="M 14.85 112.933008 
L 23.35 112.933008 
L 31.85 112.933008 
" style="fill: none; stroke: #1f262b; stroke-width: 1.4; stroke-linecap: square"/>
    </g>
    <g id="text_3">
     <!-- truth -->
     <g transform="translate(38.65 115.908008) scale(0.085 -0.085)">
      <defs>
       <path id="DejaVuSans-57" d="M 1172 4494 
L 1172 3500 
L 2356 3500 
L 2356 3053 
L 1172 3053 
L 1172 1153 
Q 1172 725 1289 603 
Q 1406 481 1766 481 
L 2356 481 
L 2356 0 
L 1766 0 
Q 1100 0 847 248 
Q 594 497 594 1153 
L 594 3053 
L 172 3053 
L 172 3500 
L 594 3500 
L 594 4494 
L 1172 4494 
z
" transform="scale(0.015625)"/>
       <path id="DejaVuSans-55" d="M 2631 2963 
Q 2534 3019 2420 3045 
Q 2306 3072 2169 3072 
Q 1681 3072 1420 2755 
Q 1159 2438 1159 1844 
L 1159 0 
L 581 0 
L 581 3500 
L 1159 3500 
L 1159 2956 
Q 1341 3275 1631 3429 
Q 1922 3584 2338 3584 
Q 2397 3584 2469 3576 
Q 2541 3569 2628 3553 
L 2631 2963 
z
" transform="scale(0.015625)"/>
       <path id="DejaVuSans-58" d="M 544 1381 
L 544 3500 
L 1119 3500 
L 1119 1403 
Q 1119 906 1312 657 
Q 1506 409 1894 409 
Q 2359 409 2629 706 
Q 2900 1003 2900 1516 
L 2900 3500 
L 3475 3500 
L 3475 0 
L 2900 0 
L 2900 538 
Q 2691 219 2414 64 
Q 2138 -91 1772 -91 
Q 1169 -91 856 284 
Q 544 659 544 1381 
z
M 1991 3584 
L 1991 3584 
z
" transform="scale(0.015625)"/>
       <path id="DejaVuSans-4b" d="M 3513 2113 
L 3513 0 
L 2938 0 
L 2938 2094 
Q 2938 2591 2744 2837 
Q 2550 3084 2163 3084 
Q 1697 3084 1428 2787 
Q 1159 2491 1159 1978 
L 1159 0 
L 581 0 
L 581 4863 
L 1159 4863 
L 1159 2956 
Q 1366 3272 1645 3428 
Q 1925 3584 2291 3584 
Q 2894 3584 3203 3211 
Q 3513 2838 3513 2113 
z
" transform="scale(0.015625)"/>
      </defs>
      <use xlink:href="#DejaVuSans-57"/>
      <use xlink:href="#DejaVuSans-55" transform="translate(39.203125 0)"/>
      <use xlink:href="#DejaVuSans-58" transform="translate(80.3125 0)"/>
      <use xlink:href="#DejaVuSans-57" transform="translate(143.6875 0)"/>
      <use xlink:href="#DejaVuSans-4b" transform="translate(182.890625 0)"/>
     </g>
    </g>
    <g id="line2d_5">
     <path d="M 76.582578 112.933008 
L 85.082578 112.933008 
L 93.582578 112.933008 
" style="fill: none; stroke-dasharray: 4.07,1.76; stroke-dashoffset: 0; stroke: #9ba7b0; stroke-width: 1.1"/>
    </g>
    <g id="text_4">
     <!-- free head -->
     <g transform="translate(100.382578 115.908008) scale(0.085 -0.085)">
      <defs>
       <path id="DejaVuSans-49" d="M 2375 4863 
L 2375 4384 
L 1825 4384 
Q 1516 4384 1395 4259 
Q 1275 4134 1275 3809 
L 1275 3500 
L 2222 3500 
L 2222 3053 
L 1275 3053 
L 1275 0 
L 697 0 
L 697 3053 
L 147 3053 
L 147 3500 
L 697 3500 
L 697 3744 
Q 697 4328 969 4595 
Q 1241 4863 1831 4863 
L 2375 4863 
z
" transform="scale(0.015625)"/>
       <path id="DejaVuSans-48" d="M 3597 1894 
L 3597 1613 
L 953 1613 
Q 991 1019 1311 708 
Q 1631 397 2203 397 
Q 2534 397 2845 478 
Q 3156 559 3463 722 
L 3463 178 
Q 3153 47 2828 -22 
Q 2503 -91 2169 -91 
Q 1331 -91 842 396 
Q 353 884 353 1716 
Q 353 2575 817 3079 
Q 1281 3584 2069 3584 
Q 2775 3584 3186 3129 
Q 3597 2675 3597 1894 
z
M 3022 2063 
Q 3016 2534 2758 2815 
Q 2500 3097 2075 3097 
Q 1594 3097 1305 2825 
Q 1016 2553 972 2059 
L 3022 2063 
z
" transform="scale(0.015625)"/>
       <path id="DejaVuSans-3" transform="scale(0.015625)"/>
       <path id="DejaVuSans-44" d="M 2194 1759 
Q 1497 1759 1228 1600 
Q 959 1441 959 1056 
Q 959 750 1161 570 
Q 1363 391 1709 391 
Q 2188 391 2477 730 
Q 2766 1069 2766 1631 
L 2766 1759 
L 2194 1759 
z
M 3341 1997 
L 3341 0 
L 2766 0 
L 2766 531 
Q 2569 213 2275 61 
Q 1981 -91 1556 -91 
Q 1019 -91 701 211 
Q 384 513 384 1019 
Q 384 1609 779 1909 
Q 1175 2209 1959 2209 
L 2766 2209 
L 2766 2266 
Q 2766 2663 2505 2880 
Q 2244 3097 1772 3097 
Q 1472 3097 1187 3025 
Q 903 2953 641 2809 
L 641 3341 
Q 956 3463 1253 3523 
Q 1550 3584 1831 3584 
Q 2591 3584 2966 3190 
Q 3341 2797 3341 1997 
z
" transform="scale(0.015625)"/>
       <path id="DejaVuSans-47" d="M 2906 2969 
L 2906 4863 
L 3481 4863 
L 3481 0 
L 2906 0 
L 2906 525 
Q 2725 213 2448 61 
Q 2172 -91 1784 -91 
Q 1150 -91 751 415 
Q 353 922 353 1747 
Q 353 2572 751 3078 
Q 1150 3584 1784 3584 
Q 2172 3584 2448 3432 
Q 2725 3281 2906 2969 
z
M 947 1747 
Q 947 1113 1208 752 
Q 1469 391 1925 391 
Q 2381 391 2643 752 
Q 2906 1113 2906 1747 
Q 2906 2381 2643 2742 
Q 2381 3103 1925 3103 
Q 1469 3103 1208 2742 
Q 947 2381 947 1747 
z
" transform="scale(0.015625)"/>
      </defs>
      <use xlink:href="#DejaVuSans-49"/>
      <use xlink:href="#DejaVuSans-55" transform="translate(35.203125 0)"/>
      <use xlink:href="#DejaVuSans-48" transform="translate(74.109375 0)"/>
      <use xlink:href="#DejaVuSans-48" transform="translate(135.640625 0)"/>
      <use xlink:href="#DejaVuSans-3" transform="translate(197.171875 0)"/>
      <use xlink:href="#DejaVuSans-4b" transform="translate(228.953125 0)"/>
      <use xlink:href="#DejaVuSans-48" transform="translate(292.328125 0)"/>
      <use xlink:href="#DejaVuSans-44" transform="translate(353.859375 0)"/>
      <use xlink:href="#DejaVuSans-47" transform="translate(415.140625 0)"/>
     </g>
    </g>
    <g id="line2d_6">
     <path d="M 158.065703 112.933008 
L 166.565703 112.933008 
L 175.065703 112.933008 
" style="fill: none; stroke: #d64533; stroke-width: 1.6; stroke-linecap: square"/>
    </g>
    <g id="text_5">
     <!-- rate head -->
     <g transform="translate(181.865703 115.908008) scale(0.085 -0.085)">
      <use xlink:href="#DejaVuSans-55"/>
      <use xlink:href="#DejaVuSans-44" transform="translate(41.109375 0)"/>
      <use xlink:href="#DejaVuSans-57" transform="translate(102.390625 0)"/>
      <use xlink:href="#DejaVuSans-48" transform="translate(141.59375 0)"/>
      <use xlink:href="#DejaVuSans-3" transform="translate(203.125 0)"/>
      <use xlink:href="#DejaVuSans-4b" transform="translate(234.90625 0)"/>
      <use xlink:href="#DejaVuSans-48" transform="translate(298.28125 0)"/>
      <use xlink:href="#DejaVuSans-44" transform="translate(359.8125 0)"/>
      <use xlink:href="#DejaVuSans-47" transform="translate(421.09375 0)"/>
     </g>
    </g>
   </g>
  </g>
 </g>
 <defs>
  <clipPath id="p8539b4a25f">
   <rect x="7.2" y="7.2" width="273.04125" height="118.4"/>
  </clipPath>
 </defs>
</svg>
